<svg width="24" height="24" viewBox="0 0 24 24" fill="none" xmlns="http://www.w3.org/2000/svg">
<path fill-rule="evenodd" clip-rule="evenodd" d="M9.66665 4C7.27341 4 5.33331 5.9401 5.33331 8.33333C5.33331 10.7266 7.27341 12.6667 9.66665 12.6667C12.0599 12.6667 14 10.7266 14 8.33333C14 5.9401 12.0599 4 9.66665 4ZM7.33331 8.33333C7.33331 7.04467 8.37798 6 9.66665 6C10.9553 6 12 7.04467 12 8.33333C12 9.622 10.9553 10.6667 9.66665 10.6667C8.37798 10.6667 7.33331 9.622 7.33331 8.33333Z" fill="#303035"/>
<path d="M5.08579 14L3 16.0858V21H5V16.9142L5.91421 16H14.0858L15 16.9142V21H17V16.0858L14.9142 14H5.08579Z" fill="#303035"/>
<path d="M19.0858 16H18V14H19.9142L22 16.0858V21H20V16.9142L19.0858 16Z" fill="#303035"/>
<path d="M15.3333 12.6667C15.2212 12.6667 15.11 12.6624 15 12.654V10.643C15.1089 10.6586 15.2202 10.6667 15.3333 10.6667C16.622 10.6667 17.6667 9.622 17.6667 8.33333C17.6667 7.04467 16.622 6 15.3333 6C15.2202 6 15.1089 6.00806 15 6.02363V4.01263C15.11 4.00426 15.2212 4 15.3333 4C17.7266 4 19.6667 5.9401 19.6667 8.33333C19.6667 10.7266 17.7266 12.6667 15.3333 12.6667Z" fill="#303035"/>
</svg>
