<svg width="24" height="24" viewBox="0 0 24 24" fill="none" xmlns="http://www.w3.org/2000/svg">
<path fill-rule="evenodd" clip-rule="evenodd" d="M5.33331 8.33333C5.33331 5.9401 7.27341 4 9.66665 4C12.0599 4 14 5.9401 14 8.33333C14 10.7266 12.0599 12.6667 9.66665 12.6667C7.27341 12.6667 5.33331 10.7266 5.33331 8.33333ZM9.66665 6C8.37798 6 7.33331 7.04467 7.33331 8.33333C7.33331 9.622 8.37798 10.6667 9.66665 10.6667C10.9553 10.6667 12 9.622 12 8.33333C12 7.04467 10.9553 6 9.66665 6Z" fill="#303035"/>
<path d="M5.08579 14H14.9142L17 16.0858V21H15V16.9142L14.0858 16H5.91421L5 16.9142V21H3V16.0858L5.08579 14Z" fill="#303035"/>
<path d="M20.7 7.79999V9.79999H22.7V11.8H20.7V13.8H18.7V11.8H16.7V9.79999H18.7V7.79999H20.7Z" fill="#303035"/>
</svg>
