<svg viewBox="0 0 12 12" fill="none" xmlns="http://www.w3.org/2000/svg">
<path fill-rule="evenodd" clip-rule="evenodd" d="M12 6C12 9.31371 9.31371 12 6 12C2.68629 12 0 9.31371 0 6C0 2.68629 2.68629 0 6 0C9.31371 0 12 2.68629 12 6ZM5.57656 6.44199C5.47695 6.68516 5.42715 7.01182 5.42715 7.42197H6.55215L6.56973 7.15391C6.60195 6.8668 6.72939 6.61631 6.95205 6.40244L7.30801 6.06406C7.58633 5.79453 7.78115 5.5499 7.89248 5.33018C8.00381 5.10752 8.05947 4.87168 8.05947 4.62266C8.05947 4.07481 7.88809 3.65147 7.54531 3.35264C7.20254 3.05088 6.72061 2.9 6.09951 2.9C5.48428 2.9 4.99795 3.0582 4.64053 3.37461C4.28604 3.69102 4.10586 4.12901 4.1 4.68858H5.37441C5.38027 4.4542 5.44766 4.2711 5.57656 4.13926C5.7084 4.00449 5.88271 3.93711 6.09951 3.93711C6.55654 3.93711 6.78506 4.18467 6.78506 4.67979C6.78506 4.84385 6.74111 5.00059 6.65322 5.15C6.56533 5.29649 6.38809 5.48838 6.12148 5.72569C5.85781 5.96006 5.67617 6.19883 5.57656 6.44199ZM5.49746 8.2877C5.36562 8.41367 5.29971 8.57481 5.29971 8.7711C5.29971 8.96445 5.36416 9.12412 5.49307 9.2501C5.6249 9.37608 5.79775 9.43906 6.01162 9.43906C6.22549 9.43906 6.39687 9.37608 6.52578 9.2501C6.65762 9.12412 6.72354 8.96445 6.72354 8.7711C6.72354 8.57481 6.65615 8.41367 6.52139 8.2877C6.38955 8.15879 6.21963 8.09434 6.01162 8.09434C5.80361 8.09434 5.63223 8.15879 5.49746 8.2877Z" fill="#757581"/>
</svg>
