<svg viewBox="0 0 24 24" fill="none" xmlns="http://www.w3.org/2000/svg">
<path d="M12.25 3.885C12.8166 3.885 13.3706 4.05303 13.8417 4.36784C14.3129 4.68265 14.6801 5.1301 14.8969 5.65361C15.1138 6.17712 15.1705 6.75318 15.06 7.30893C14.9494 7.86469 14.6765 8.37518 14.2759 8.77586C13.8752 9.17654 13.3647 9.4494 12.8089 9.55995C12.2532 9.6705 11.6771 9.61376 11.1536 9.39692C10.6301 9.18007 10.1827 8.81286 9.86784 8.34171C9.55303 7.87056 9.385 7.31664 9.385 6.75C9.385 5.99015 9.68685 5.26143 10.2241 4.72414C10.7614 4.18685 11.4902 3.885 12.25 3.885ZM12.25 2.25C11.36 2.25 10.49 2.51392 9.74994 3.00839C9.00991 3.50285 8.43314 4.20566 8.09254 5.02792C7.75195 5.85019 7.66283 6.75499 7.83647 7.62791C8.0101 8.50082 8.43869 9.30264 9.06802 9.93198C9.69736 10.5613 10.4992 10.9899 11.3721 11.1635C12.245 11.3372 13.1498 11.2481 13.9721 10.9075C14.7943 10.5669 15.4971 9.99009 15.9916 9.25007C16.4861 8.51005 16.75 7.64002 16.75 6.75C16.75 5.55653 16.2759 4.41193 15.432 3.56802C14.5881 2.72411 13.4435 2.25 12.25 2.25Z" fill="#303035" stroke="#303035" stroke-width="0.2"/>
<path d="M12.25 14.25C13.1364 14.25 14.0142 14.4246 14.8331 14.7638C15.6521 15.103 16.3962 15.6002 17.023 16.227C17.6498 16.8538 18.147 17.5979 18.4862 18.4169C18.8254 19.2358 19 20.1136 19 21H20.5C20.5 18.812 19.6308 16.7135 18.0836 15.1664C16.5365 13.6192 14.438 12.75 12.25 12.75C10.062 12.75 7.96354 13.6192 6.41637 15.1664C4.86919 16.7135 4 18.812 4 21H19.5V19.5H5.6725C6.01225 18.0093 6.84799 16.6782 8.0429 15.7244C9.23782 14.7707 10.7211 14.2508 12.25 14.25Z" fill="#303035" stroke="#303035" stroke-width="0.4"/>
</svg>
