<svg width="24" height="24" viewBox="0 0 24 24" fill="none" xmlns="http://www.w3.org/2000/svg">
<path d="M3 4.98999V19H21V4.98999H3ZM19 17.01H5V6.98999H19V17.01Z" fill="#303035"/>
<path d="M11.61 15.26C12.3 15.43 13.56 15.74 15.01 15.2V13.55C13.77 14.26 12.71 13.99 11.97 13.81C11.75 13.76 11.5 13.71 11.23 13.68C11.37 13.4 11.48 13.1 11.52 12.76H13.5V11.26H11.4C11.38 11.19 11.36 11.13 11.33 11.07C11.28 10.94 11.25 10.86 11.25 10.51C11.25 10.1 11.59 9.75999 12 9.75999C12.41 9.75999 12.75 10.1 12.75 10.51H14.25C14.25 9.26999 13.24 8.25999 12 8.25999C10.76 8.25999 9.76 9.25999 9.76 10.5C9.76 10.85 9.79 11.07 9.83 11.25H9.01V12.75H9.99C9.82 13.35 9.31 13.61 9.01 13.72V15.49C9.86 15.12 10.74 15.04 11.61 15.26Z" fill="#303035"/>
</svg>
