<svg width="24" height="24" viewBox="0 0 24 24" fill="none" xmlns="http://www.w3.org/2000/svg">
<path d="M4.54 13.32L4.56 13.34C4.73 13.51 12 20.01 12 20.01L19.33 13.45C20.36 12.45 21 11.06 21 9.51001C21 6.47001 19.05 4.01001 16.01 4.01001C14.01 4.01001 13.01 5.01001 12 6.01001C11.01 5.01001 10.01 4.01001 8.01 4.01001C4.97 4.01001 3 6.47001 3 9.51001C3 10.98 3.59 12.33 4.54 13.32ZM8.01 6C9.14 6 9.64 6.46 10.58 7.41L12 8.82001L13.42 7.41C14.4 6.43 14.89 6 16.01 6C18.08 6 19 7.76 19 9.5C19 10.45 18.62 11.34 17.94 12.01L12 17.32C9.42 15.01 6.38 12.3 5.98 11.92C5.35 11.26 5 10.4 5 9.5C5 7.76 5.93 6 8.01 6Z" fill="#303035"/>
</svg>
