<svg width="24" height="24" viewBox="0 0 24 24" fill="none" xmlns="http://www.w3.org/2000/svg">
<path d="M4.90004 19C5.55004 18.69 6.27004 18.5 7.04004 18.5C8.43004 18.5 9.69004 19.08 10.6 20H12.04H13.48C14.39 19.08 15.65 18.5 17.04 18.5C17.81 18.5 18.53 18.69 19.18 19H21.04V18H21.05V6H21.04V5.07001C19.87 4.39001 18.51 4 17.06 4C15.16 4 13.42 4.66 12.05 5.77V5.75C10.68 4.66 8.95004 4 7.07004 4C5.60004 4 4.23004 4.4 3.05004 5.09V6V17.75C3.05004 17.75 3.04004 17.75 3.04004 17.76V19H4.90004ZM5.05004 6.36C5.68004 6.13 6.36004 6 7.07004 6C8.59004 6 9.98004 6.58001 11.04 7.51001V16H13.04V7.56C14.11 6.6 15.51 6 17.06 6C17.76 6 18.43 6.13001 19.05 6.35001V16.8C18.41 16.61 17.74 16.5 17.04 16.5C15.08 16.5 13.31 17.31 12.04 18.61C10.77 17.31 9.00004 16.5 7.04004 16.5C6.35004 16.5 5.68004 16.6 5.05004 16.79V6.36Z" fill="#303035"/>
</svg>
