<svg width="24" height="24" viewBox="0 0 24 24" fill="none" xmlns="http://www.w3.org/2000/svg">
<path d="M15.5 12C16.3284 12 17 11.3284 17 10.5C17 9.67157 16.3284 9 15.5 9C14.6716 9 14 9.67157 14 10.5C14 11.3284 14.6716 12 15.5 12Z" fill="#303035"/>
<path d="M12.5 11.5H10.5V13.5H8.5V11.5H6.5V9.5H8.5V7.5H10.5V9.5H12.5V11.5Z" fill="#303035"/>
<path fill-rule="evenodd" clip-rule="evenodd" d="M10 17H14L16 20H21V8.5L18 4H6L3 8.5V20H8L10 17ZM5 18V9.11L7.07 6H16.93L19 9.11V18H17.07L15.66 15.89L15.07 15H8.93L8.34 15.89L6.93 18H5Z" fill="#303035"/>
</svg>
