<svg width="24" height="24" viewBox="0 0 24 24" fill="none" xmlns="http://www.w3.org/2000/svg">
<path d="M16.55 9C16.55 9.82843 15.8784 10.5 15.05 10.5C14.2216 10.5 13.55 9.82843 13.55 9C13.55 8.17157 14.2216 7.5 15.05 7.5C15.8784 7.5 16.55 8.17157 16.55 9Z" fill="#303035"/>
<path d="M13.55 12C13.55 12.8284 12.8784 13.5 12.05 13.5C11.2216 13.5 10.55 12.8284 10.55 12C10.55 11.1716 11.2216 10.5 12.05 10.5C12.8784 10.5 13.55 11.1716 13.55 12Z" fill="#303035"/>
<path d="M9.04999 16.5C9.87842 16.5 10.55 15.8284 10.55 15C10.55 14.1716 9.87842 13.5 9.04999 13.5C8.22156 13.5 7.54999 14.1716 7.54999 15C7.54999 15.8284 8.22156 16.5 9.04999 16.5Z" fill="#303035"/>
<path fill-rule="evenodd" clip-rule="evenodd" d="M20.05 4V20H4.04999V4H20.05ZM18.05 6H6.04999V18H18.05V6Z" fill="#303035"/>
</svg>
