<svg width="24" height="24" viewBox="0 0 24 24" fill="none" xmlns="http://www.w3.org/2000/svg">
<path d="M15.05 14.7C13.6 15.24 12.34 14.93 11.65 14.76C10.78 14.54 9.9 14.62 9.05 14.99V13.23C9.81 13.03 10.15 12.75 10.23 12.26H9.05V10.76H9.9C9.85 10.55 9.81 10.31 9.81 10.01C9.81 8.77001 10.82 7.76001 12.06 7.76001C13.3 7.76001 14.31 8.77001 14.31 10.01H12.81C12.81 9.60001 12.47 9.26001 12.06 9.26001C11.65 9.26001 11.31 9.60001 11.31 10.01C11.31 10.33 11.37 10.52 11.47 10.76H13.56V12.26H11.73C11.7 12.63 11.62 12.94 11.49 13.21C11.68 13.24 11.86 13.27 12.02 13.31L12.0383 13.3145C12.7677 13.4944 13.8203 13.7541 15.05 13.05V14.7Z" fill="#303035"/>
<path fill-rule="evenodd" clip-rule="evenodd" d="M4 12V4H20V12C20 18 15 20 12 21C9 20 4 18 4 12ZM12 18.88C15.19 17.74 18 16.03 18 12V6H6V12C6 16.03 8.81 17.74 12 18.88Z" fill="#303035"/>
</svg>
