<svg width="24" height="24" viewBox="0 0 24 24" fill="none" xmlns="http://www.w3.org/2000/svg">
<path fill-rule="evenodd" clip-rule="evenodd" d="M20.03 20H3.97998V4.5H8.02998V3H10.03V4.5H14.03V3H16.03V4.5H20.03V20ZM8.02998 6.5H5.97998V18H18.03V6.5H16.03V8H14.03V6.5H10.03V8H8.02998V6.5ZM9 14.72C9.37 14.59 10.08 14.21 10.04 13.25V13.26H9V11.76H9.8C9.77 11.55 9.75 11.31 9.75 11.01C9.75 9.77001 10.76 8.76001 12 8.76001C13.24 8.76001 14.25 9.77001 14.25 11.01H12.75C12.75 10.6 12.41 10.26 12 10.26C11.59 10.26 11.25 10.6 11.25 11.01C11.25 11.33 11.28 11.55 11.32 11.76H13.5V13.26H11.53C11.54 13.81 11.42 14.28 11.21 14.69C11.46 14.72 11.71 14.75 11.96 14.81L11.9861 14.8164C12.7248 14.9962 13.7745 15.2517 15 14.55V16.2C13.5649 16.7444 12.3158 16.4365 11.6214 16.2653L11.6 16.26C10.73 16.05 9.85 16.13 9 16.49V14.72Z" fill="#303035"/>
</svg>
