<svg width="24" height="24" viewBox="0 0 24 24" fill="none" xmlns="http://www.w3.org/2000/svg">
<path fill-rule="evenodd" clip-rule="evenodd" d="M4.21001 9.62001L3.01001 8.02C5.52001 6.13 8.62001 5.01001 12 5.01001C15.38 5.01001 18.48 6.14 20.99 8.02L19.79 9.62001C17.61 7.98001 14.92 7 12 7C9.08001 7 6.38001 7.99001 4.21001 9.62001ZM6.60997 12.81L5.40997 11.21C7.24997 9.83001 9.52997 9 12 9C14.47 9 16.75 9.83001 18.59 11.21L17.39 12.81C15.89 11.68 14.02 11 12 11C9.95997 11 8.09997 11.69 6.60997 12.81ZM7.79999 14.41L8.99999 16.01C9.80999 15.4 10.84 15 12 15C13.12 15 14.15 15.39 14.99 16.02L16.2 14.41C15.03 13.53 13.58 13 12 13C10.42 13 8.96999 13.53 7.79999 14.41ZM12 20L10.21 17.61C10.71 17.24 11.33 17 12 17C12.67 17 13.29 17.23 13.79 17.61L12 20Z" fill="#303035"/>
</svg>
