<svg width="24" height="24" viewBox="0 0 24 24" fill="none" xmlns="http://www.w3.org/2000/svg">
<path fill-rule="evenodd" clip-rule="evenodd" d="M20.06 12C20.06 13.9 19.39 15.65 18.28 17.02H21.06L19.06 20.02L3.06 20L5.06 17H5.82C4.72 15.63 4.06 13.89 4.06 12C4.06 7.58 7.64 4 12.06 4C16.48 4 20.06 7.58 20.06 12ZM12.05 6C8.74 6 6.05 8.69 6.05 12C6.05 15.31 8.74 18 12.05 18C15.36 18 18.05 15.31 18.05 12C18.05 8.69 15.36 6 12.05 6ZM15.06 15.2C13.61 15.74 12.35 15.43 11.66 15.26C10.79 15.04 9.91 15.12 9.06 15.5V13.73C9.43 13.6 10.14 13.22 10.1 12.26H9.06V10.76H9.86C9.83 10.55 9.81 10.31 9.81 10.01C9.81 8.77001 10.82 7.76001 12.06 7.76001C13.3 7.76001 14.31 8.77001 14.31 10.01H12.81C12.81 9.60001 12.47 9.26001 12.06 9.26001C11.65 9.26001 11.31 9.60001 11.31 10.01C11.31 10.33 11.34 10.55 11.38 10.76H13.56V12.26H11.59C11.6 12.8 11.49 13.28 11.28 13.68C11.55 13.71 11.8 13.76 12.02 13.81L12.0461 13.8163C12.7848 13.9962 13.8345 14.2517 15.06 13.55V15.2Z" fill="#303035"/>
</svg>
