<svg width="24" height="24" viewBox="0 0 24 24" fill="none" xmlns="http://www.w3.org/2000/svg">
<path d="M20.51 4H13.51V4.14999H13.5V6.21999H13.51V11H15.51V7.15999C15.76 7.33999 16.01 7.52999 16.24 7.75999C18.58 10.1 18.58 13.91 16.24 16.25C13.9 18.59 10.09 18.59 7.74999 16.25C6.61999 15.12 5.98999 13.61 5.98999 12.01C5.98999 10.41 6.60999 8.89999 7.74999 7.76999C8.78999 6.72999 10.13 6.18 11.49 6.06V4.03999C9.60999 4.15999 7.76999 4.91999 6.32999 6.35999C4.81999 7.86999 3.98999 9.87999 3.98999 12.02C3.98999 14.16 4.81999 16.17 6.32999 17.68C7.88999 19.24 9.93999 20.02 11.99 20.02C14.04 20.02 16.09 19.24 17.65 17.68C20.77 14.56 20.77 9.49 17.65 6.37C17.53 6.25 17.4 6.14 17.27 6.03H20.5V4H20.51Z" fill="#303035"/>
</svg>
